<svg width="101" height="12" viewBox="0 0 101 12" fill="none" xmlns="http://www.w3.org/2000/svg">
<path fill-rule="evenodd" clip-rule="evenodd" d="M3.12126 0.0161133C1.94702 0.0161133 0.995117 0.968022 0.995117 2.14226V9.87434C0.995117 11.0486 1.94703 12.0005 3.12126 12.0005H14.8481C16.0224 12.0005 16.9743 11.0486 16.9743 9.87434V2.14226C16.9743 0.968021 16.0224 0.0161133 14.8481 0.0161133H3.12126ZM8.96797 5.838C10.0967 5.838 11.145 5.49386 12.0138 4.90478C12.0526 5.10099 12.073 5.30386 12.073 5.51148C12.073 7.22634 10.6828 8.61651 8.96797 8.61651C7.25311 8.61651 5.86295 7.22634 5.86295 5.51148C5.86295 5.30386 5.88333 5.10099 5.92219 4.90478C6.79094 5.49386 7.83926 5.838 8.96797 5.838Z" fill="#B9C5CE"/>
<path d="M25.3457 2.25518C24.2073 2.16927 23.6382 2.62567 23.6382 3.62439V3.70493H25.3457V5.70238H23.6382V11.7591H21.5602V5.70238H20.4004V3.70493H21.5602V3.62439C21.5602 2.48606 21.877 1.62158 22.5106 1.03094C23.1442 0.440297 24.0892 0.182562 25.3457 0.257734V2.25518Z" fill="#B9C5CE"/>
<path d="M32.4747 3.70493H34.5527V11.7591H32.4747V10.8087C31.8519 11.5927 30.9767 11.9847 29.8491 11.9847C28.7752 11.9847 27.8516 11.5766 27.0784 10.7604C26.316 9.93352 25.9347 8.92406 25.9347 7.73203C25.9347 6.54001 26.316 5.53592 27.0784 4.71976C27.8516 3.89286 28.7752 3.47942 29.8491 3.47942C30.9767 3.47942 31.8519 3.87139 32.4747 4.65533V3.70493ZM28.6409 9.37509C29.0598 9.79391 29.5913 10.0033 30.2357 10.0033C30.88 10.0033 31.4116 9.79391 31.8304 9.37509C32.26 8.94554 32.4747 8.39785 32.4747 7.73203C32.4747 7.06622 32.26 6.5239 31.8304 6.10509C31.4116 5.67553 30.88 5.46075 30.2357 5.46075C29.5913 5.46075 29.0598 5.67553 28.6409 6.10509C28.2221 6.5239 28.0127 7.06622 28.0127 7.73203C28.0127 8.39785 28.2221 8.94554 28.6409 9.37509Z" fill="#B9C5CE"/>
<path d="M39.6802 11.9847C38.4667 11.9847 37.4519 11.5766 36.6358 10.7604C35.8303 9.94426 35.4276 8.9348 35.4276 7.73203C35.4276 6.52927 35.8303 5.51981 36.6358 4.70365C37.4519 3.8875 38.4667 3.47942 39.6802 3.47942C40.4642 3.47942 41.1783 3.66735 41.8227 4.04321C42.467 4.41907 42.9556 4.9238 43.2885 5.5574L41.5005 6.60445C41.3394 6.27154 41.0924 6.00844 40.7595 5.81513C40.4373 5.62183 40.0722 5.52518 39.6641 5.52518C39.0413 5.52518 38.5258 5.73459 38.1177 6.15341C37.7096 6.56149 37.5056 7.0877 37.5056 7.73203C37.5056 8.36563 37.7096 8.89184 38.1177 9.31066C38.5258 9.71874 39.0413 9.92278 39.6641 9.92278C40.083 9.92278 40.4534 9.8315 40.7756 9.64893C41.1085 9.45563 41.3555 9.19253 41.5166 8.85962L43.557 9.89056C43.2026 10.5242 42.467 11.0343 41.8227 11.4209C41.1783 11.7967 40.4642 11.9847 39.6802 11.9847Z" fill="#B9C5CE"/>
<path d="M46.286 8.58578C46.5652 9.59524 47.3223 10.1 48.5573 10.1C49.3519 10.1 49.9533 9.8315 50.3614 9.29455L52.0367 10.2611C51.242 11.4101 50.0714 11.9847 48.525 11.9847C47.1934 11.9847 46.1249 11.5819 45.3195 10.7765C44.514 9.9711 44.1113 8.95627 44.1113 7.73203C44.1113 6.51853 44.5087 5.50907 45.3034 4.70365C46.098 3.8875 47.1182 3.47942 48.364 3.47942C49.5452 3.47942 50.5171 3.8875 51.2796 4.70365C52.0528 5.51981 52.4394 6.52927 52.4394 7.73203C52.4394 8.00051 52.4125 8.28509 52.3588 8.58578H46.286ZM46.2538 6.97494H50.3614C50.2433 6.42725 49.9963 6.01917 49.6204 5.7507C49.2553 5.48223 48.8365 5.34799 48.364 5.34799C47.8055 5.34799 47.3438 5.49297 46.9786 5.78292C46.6135 6.06213 46.3719 6.45947 46.2538 6.97494Z" fill="#B9C5CE"/>
<path d="M65.2144 3.70493H67.4212L64.86 11.7591H62.8786L61.3967 6.87829L59.9147 11.7591H57.9334L55.3721 3.70493H57.579L58.9482 8.65021L60.4141 3.70493H62.3793L63.8451 8.66632L65.2144 3.70493Z" fill="#B9C5CE"/>
<path d="M74.5841 3.70493H76.6621V11.7591H74.5841V10.8087C73.9612 11.5927 73.086 11.9847 71.9584 11.9847C70.8845 11.9847 69.961 11.5766 69.1878 10.7604C68.4253 9.93352 68.0441 8.92406 68.0441 7.73203C68.0441 6.54001 68.4253 5.53592 69.1878 4.71976C69.961 3.89286 70.8845 3.47942 71.9584 3.47942C73.086 3.47942 73.9612 3.87139 74.5841 4.65533V3.70493ZM70.7503 9.37509C71.1691 9.79391 71.7007 10.0033 72.345 10.0033C72.9893 10.0033 73.5209 9.79391 73.9397 9.37509C74.3693 8.94554 74.5841 8.39785 74.5841 7.73203C74.5841 7.06622 74.3693 6.5239 73.9397 6.10509C73.5209 5.67553 72.9893 5.46075 72.345 5.46075C71.7007 5.46075 71.1691 5.67553 70.7503 6.10509C70.3315 6.5239 70.122 7.06622 70.122 7.73203C70.122 8.39785 70.3315 8.94554 70.7503 9.37509Z" fill="#B9C5CE"/>
<path d="M78.3101 11.7591V0H80.3881V11.7591H78.3101Z" fill="#B9C5CE"/>
<path d="M82.1719 11.7591V0H84.2499V11.7591H82.1719Z" fill="#B9C5CE"/>
<path d="M88.0258 8.58578C88.305 9.59524 89.0621 10.1 90.297 10.1C91.0917 10.1 91.6931 9.8315 92.1012 9.29455L93.7765 10.2611C92.9818 11.4101 91.8112 11.9847 90.2648 11.9847C88.9332 11.9847 87.8647 11.5819 87.0593 10.7765C86.2538 9.9711 85.8511 8.95627 85.8511 7.73203C85.8511 6.51853 86.2485 5.50907 87.0431 4.70365C87.8378 3.8875 88.858 3.47942 90.1037 3.47942C91.285 3.47942 92.2569 3.8875 93.0194 4.70365C93.7926 5.51981 94.1792 6.52927 94.1792 7.73203C94.1792 8.00051 94.1523 8.28509 94.0986 8.58578H88.0258ZM87.9935 6.97494H92.1012C91.983 6.42725 91.7361 6.01917 91.3602 5.7507C90.9951 5.48223 90.5763 5.34799 90.1037 5.34799C89.5453 5.34799 89.0835 5.49297 88.7184 5.78292C88.3533 6.06213 88.1117 6.45947 87.9935 6.97494Z" fill="#B9C5CE"/>
<path d="M100.001 5.70238H98.1806V9.05292C98.1806 9.33214 98.2504 9.53618 98.39 9.66504C98.5296 9.79391 98.7337 9.86908 99.0021 9.89056C99.2706 9.9013 99.6035 9.89593 100.001 9.87445V11.7591C98.5726 11.9202 97.5631 11.786 96.9725 11.3564C96.3926 10.9269 96.1026 10.159 96.1026 9.05292V5.70238H94.7012V3.70493H96.1026V2.07798L98.1806 1.44976V3.70493H100.001V5.70238Z" fill="#B9C5CE"/>
</svg>
