<svg width="48" height="49" viewBox="0 0 48 49" fill="none" xmlns="http://www.w3.org/2000/svg">
<g clip-path="url(#clip0_769_2374)">
<path d="M48 24.5C48 37.7541 37.2541 48.5 24 48.5C10.7459 48.5 0 37.7541 0 24.5C0 11.2459 10.7459 0.5 24 0.5C37.2569 0.5 48 11.2459 48 24.5Z" fill="#2081E2"/>
<path d="M11.8409 25.3064L11.9445 25.1436L18.1878 15.3767C18.2791 15.2337 18.4936 15.2485 18.5626 15.4038C19.6057 17.7414 20.5057 20.6485 20.084 22.4584C19.904 23.2031 19.4109 24.2116 18.856 25.1436C18.7846 25.2793 18.7057 25.4124 18.6218 25.5406C18.5823 25.5998 18.5158 25.6343 18.4442 25.6343H12.0234C11.8508 25.6343 11.7497 25.4469 11.8409 25.3064Z" fill="white"/>
<path d="M39.6694 27.1214V28.6674C39.6694 28.7562 39.6151 28.8351 39.5362 28.8696C39.053 29.0767 37.3984 29.8362 36.7105 30.7929C34.9548 33.2365 33.6135 36.7305 30.6151 36.7305H18.1062C13.6727 36.7305 10.0801 33.1256 10.0801 28.6772V28.5343C10.0801 28.4159 10.1762 28.3197 10.2946 28.3197H17.2678C17.4059 28.3197 17.507 28.448 17.4947 28.5836C17.4453 29.0372 17.5292 29.5008 17.7437 29.9225C18.158 30.7633 19.016 31.2885 19.9432 31.2885H23.3953V28.5934H19.9826C19.8076 28.5934 19.704 28.3912 19.8051 28.2482C19.8421 28.1915 19.884 28.1324 19.9284 28.0658C20.2514 27.6071 20.7125 26.8945 21.1711 26.0833C21.4843 25.5359 21.7876 24.9515 22.0317 24.3646C22.081 24.2586 22.1204 24.1501 22.1599 24.044C22.2265 23.8567 22.2956 23.6816 22.3448 23.5065C22.3942 23.3586 22.4336 23.2032 22.4731 23.0577C22.589 22.5596 22.6383 22.032 22.6383 21.4846C22.6383 21.2701 22.6284 21.0457 22.6087 20.8312C22.5988 20.5969 22.5692 20.3626 22.5396 20.1284C22.5199 19.9213 22.4829 19.7166 22.4435 19.5021C22.3942 19.1889 22.3251 18.8783 22.2462 18.5651L22.2191 18.4468C22.1599 18.2322 22.1106 18.0276 22.0416 17.8131C21.8467 17.1399 21.6224 16.484 21.3857 15.87C21.2994 15.6259 21.2007 15.3917 21.1021 15.1574C20.9566 14.8048 20.8087 14.4843 20.6731 14.181C20.604 14.0429 20.5448 13.9171 20.4857 13.7889C20.4191 13.6434 20.3501 13.4979 20.281 13.3599C20.2317 13.2538 20.175 13.1552 20.1355 13.0566L19.7139 12.2774C19.6547 12.1713 19.7533 12.0456 19.8692 12.0776L22.5076 12.7927H22.515C22.5199 12.7927 22.5224 12.7952 22.5248 12.7952L22.8725 12.8913L23.2547 12.9999L23.3953 13.0393V11.4711C23.3953 10.7141 24.0019 10.1001 24.7515 10.1001C25.1263 10.1001 25.4665 10.253 25.7107 10.502C25.9547 10.7511 26.1076 11.0913 26.1076 11.4711V13.7988L26.3887 13.8776C26.4109 13.8851 26.4331 13.8949 26.4528 13.9097C26.5219 13.9615 26.6205 14.0379 26.7463 14.1317C26.8449 14.2105 26.9509 14.3067 27.0791 14.4054C27.3331 14.61 27.6364 14.8738 27.9693 15.1772C28.058 15.2536 28.1444 15.3325 28.2233 15.4114C28.6523 15.8108 29.1331 16.2793 29.5918 16.7972C29.72 16.9426 29.8458 17.0906 29.974 17.2459C30.1022 17.4037 30.2378 17.5591 30.3561 17.7144C30.5115 17.9216 30.6792 18.1361 30.8247 18.3605C30.8937 18.4665 30.9726 18.575 31.0392 18.681C31.2266 18.9645 31.3918 19.258 31.5496 19.5514C31.6162 19.687 31.6852 19.835 31.7444 19.9805C31.9195 20.3725 32.0575 20.772 32.1463 21.1714C32.1734 21.2577 32.1931 21.3514 32.203 21.4353V21.455C32.2326 21.5733 32.2425 21.6991 32.2523 21.8273C32.2918 22.2367 32.2721 22.646 32.1833 23.0577C32.1463 23.2328 32.097 23.398 32.0378 23.5731C31.9786 23.7408 31.9195 23.9158 31.843 24.0811C31.6951 24.4238 31.52 24.7665 31.3129 25.0871C31.2463 25.2055 31.1674 25.3312 31.0885 25.4496C31.0022 25.5753 30.9134 25.6937 30.8345 25.8096C30.726 25.9575 30.6102 26.1128 30.4918 26.2509C30.3858 26.3964 30.2773 26.5419 30.1589 26.6701C29.9937 26.8649 29.8359 27.0499 29.6707 27.2274C29.5721 27.3433 29.466 27.4616 29.3575 27.5677C29.2515 27.686 29.143 27.792 29.0443 27.8907C28.8792 28.0559 28.7411 28.1841 28.6252 28.2901L28.354 28.5392C28.3145 28.5737 28.2627 28.5934 28.2085 28.5934H26.1076V31.2885H28.7509C29.3427 31.2885 29.9049 31.0789 30.3586 30.6943C30.514 30.5587 31.1921 29.9718 31.9934 29.0866C32.0205 29.057 32.0551 29.0348 32.0946 29.025L39.3957 26.9143C39.5313 26.8748 39.6694 26.9783 39.6694 27.1214Z" fill="white"/>
</g>
<defs>
<clipPath id="clip0_769_2374">
<rect width="48" height="48" fill="white" transform="translate(0 0.5)"/>
</clipPath>
</defs>
</svg>
